<svg width="22" height="22" viewBox="0 0 22 22" fill="none" xmlns="http://www.w3.org/2000/svg">
<path fill-rule="evenodd" clip-rule="evenodd" d="M8.22917 11.2742C7.98479 11.2586 7.74082 11.25 7.5 11.25C6.54334 11.25 5.53709 11.3858 4.652 11.5543C2.55329 11.9537 1.25 13.8586 1.25 15.883V17C1.25 17.9665 2.0335 18.75 3 18.75H7.56302C7.25437 18.3209 7.05622 17.807 7.01027 17.25H3C2.86193 17.25 2.75 17.1381 2.75 17V15.883C2.75 14.464 3.64848 13.2722 4.93248 13.0278C5.73328 12.8754 6.59787 12.7599 7.39669 12.7506C7.60024 12.2212 7.87965 11.7217 8.22917 11.2742Z" fill="#262626"/>
<path fill-rule="evenodd" clip-rule="evenodd" d="M14.5 11.75C13.6728 11.75 12.7679 11.8688 11.9325 12.0278C10.6485 12.2722 9.75 13.464 9.75 14.883V17C9.75 17.1381 9.86193 17.25 10 17.25H19C19.1381 17.25 19.25 17.1381 19.25 17V14.883C19.25 13.464 18.3515 12.2722 17.0675 12.0278C16.2321 11.8688 15.3272 11.75 14.5 11.75ZM11.652 10.5543C12.5371 10.3858 13.5433 10.25 14.5 10.25C15.4567 10.25 16.4629 10.3858 17.348 10.5543C19.4467 10.9537 20.75 12.8586 20.75 14.883V17C20.75 17.9665 19.9665 18.75 19 18.75H10C9.0335 18.75 8.25 17.9665 8.25 17V14.883C8.25 12.8586 9.55329 10.9537 11.652 10.5543Z" fill="#262626"/>
<path fill-rule="evenodd" clip-rule="evenodd" d="M7.54208 8.05139C7.8808 7.46731 8.08313 6.60908 8.08313 5.75466C8.08313 5.07135 7.87419 4.79871 7.72766 4.67151C7.54269 4.51095 7.18051 4.34986 6.56571 4.34986C5.95092 4.34986 5.58874 4.51095 5.40377 4.67151C5.25724 4.79871 5.0483 5.07135 5.0483 5.75466C5.0483 6.60908 5.25063 7.46731 5.58935 8.05139C5.906 8.59741 6.22562 8.75014 6.56571 8.75014C6.90581 8.75014 7.22543 8.59741 7.54208 8.05139ZM6.56571 10.4C8.75226 10.4 9.73299 7.89262 9.73299 5.75466C9.73299 3.6167 8.32531 2.7 6.56571 2.7C4.80612 2.7 3.39844 3.6167 3.39844 5.75466C3.39844 7.89262 4.37917 10.4 6.56571 10.4Z" fill="#262626"/>
<path fill-rule="evenodd" clip-rule="evenodd" d="M15.5818 7.14103C15.9395 6.52423 16.1495 5.62661 16.1495 4.73794C16.1495 4.01839 15.9307 3.75164 15.7813 3.62805C15.58 3.46148 15.1816 3.29834 14.4989 3.29834C13.8162 3.29834 13.4178 3.46148 13.2165 3.62805C13.0671 3.75164 12.8483 4.01839 12.8483 4.73794C12.8483 5.62661 13.0583 6.52423 13.416 7.14103C13.7523 7.72096 14.1071 7.90465 14.4989 7.90465C14.8907 7.90465 15.2455 7.72096 15.5818 7.14103ZM14.4989 9.503C16.7418 9.503 17.7478 6.931 17.7478 4.73794C17.7478 2.54489 16.3038 1.7 14.4989 1.7C12.694 1.7 11.25 2.54489 11.25 4.73794C11.25 6.931 12.256 9.503 14.4989 9.503Z" fill="#262626"/>
</svg>
