<svg width="16" height="16" viewBox="0 0 16 16" fill="none" xmlns="http://www.w3.org/2000/svg">
<path fill-rule="evenodd" clip-rule="evenodd" d="M14.0204 12.5512L8.26049 2.4714C8.14532 2.26985 7.85471 2.26985 7.73955 2.47139L1.97968 12.5512C1.8654 12.7512 2.00981 13 2.24015 13H13.7599C13.9902 13 14.1346 12.7512 14.0204 12.5512ZM9.12874 1.97526C8.62967 1.1019 7.37037 1.1019 6.8713 1.97526L1.11144 12.055C0.616207 12.9217 1.24198 14 2.24015 14H13.7599C14.7581 14 15.3838 12.9217 14.8886 12.055L9.12874 1.97526Z" fill="#262626"/>
<path d="M8.75 11.25C8.75 11.6642 8.41421 12 8 12C7.58579 12 7.25 11.6642 7.25 11.25C7.25 10.8358 7.58579 10.5 8 10.5C8.41421 10.5 8.75 10.8358 8.75 11.25Z" fill="#262626"/>
<path d="M7.5 5C7.5 4.72386 7.72386 4.5 8 4.5C8.27614 4.5 8.5 4.72386 8.5 5V9C8.5 9.27614 8.27614 9.5 8 9.5C7.72386 9.5 7.5 9.27614 7.5 9V5Z" fill="#262626"/>
</svg>
