<svg width="22" height="22" viewBox="0 0 22 22" fill="none" xmlns="http://www.w3.org/2000/svg">
<path fill-rule="evenodd" clip-rule="evenodd" d="M20 10.25H2V8.75H20V10.25Z" fill="#262626"/>
<rect x="6" y="1.5" width="1.5" height="5" rx="0.75" fill="#262626"/>
<path fill-rule="evenodd" clip-rule="evenodd" d="M17.5 4.58535C18.0826 4.79127 18.5 5.34689 18.5 6V16C18.5 16.8284 17.8284 17.5 17 17.5H5C4.17157 17.5 3.5 16.8284 3.5 16V6C3.5 5.34689 3.9174 4.79127 4.5 4.58535V3.04148C3.08114 3.27952 2 4.5135 2 6V16C2 17.6569 3.34315 19 5 19H17C18.6569 19 20 17.6569 20 16V6C20 4.5135 18.9189 3.27952 17.5 3.04148V4.58535ZM13 3V4.5H9V3H13Z" fill="#262626"/>
<rect x="14.5" y="1.5" width="1.5" height="5" rx="0.75" fill="#262626"/>
</svg>
