<svg width="16" height="16" viewBox="0 0 16 16" fill="none" xmlns="http://www.w3.org/2000/svg">
<path fill-rule="evenodd" clip-rule="evenodd" d="M8 14C11.3137 14 14 11.3137 14 8C14 4.68629 11.3137 2 8 2C4.68629 2 2 4.68629 2 8C2 11.3137 4.68629 14 8 14ZM8 15C11.866 15 15 11.866 15 8C15 4.13401 11.866 1 8 1C4.13401 1 1 4.13401 1 8C1 11.866 4.13401 15 8 15Z" fill="#262626"/>
<path fill-rule="evenodd" clip-rule="evenodd" d="M8 3C8.27614 3 8.5 3.22386 8.5 3.5V7.5H11.5C11.7761 7.5 12 7.72386 12 8C12 8.27614 11.7761 8.5 11.5 8.5H8C7.72386 8.5 7.5 8.27614 7.5 8V3.5C7.5 3.22386 7.72386 3 8 3Z" fill="#262626"/>
</svg>
