<svg width="22" height="22" viewBox="0 0 22 22" fill="none" xmlns="http://www.w3.org/2000/svg">
<path fill-rule="evenodd" clip-rule="evenodd" d="M3.29289 3.29289C3.68342 2.90237 4.31658 2.90237 4.70711 3.29289L18.7071 17.2929C19.0976 17.6834 19.0976 18.3166 18.7071 18.7071C18.3166 19.0976 17.6834 19.0976 17.2929 18.7071L3.29289 4.70711C2.90237 4.31658 2.90237 3.68342 3.29289 3.29289Z" fill="#262626"/>
<path fill-rule="evenodd" clip-rule="evenodd" d="M18.7071 3.29289C19.0976 3.68342 19.0976 4.31658 18.7071 4.70711L4.70711 18.7071C4.31658 19.0976 3.68342 19.0976 3.29289 18.7071C2.90237 18.3166 2.90237 17.6834 3.29289 17.2929L17.2929 3.29289C17.6834 2.90237 18.3166 2.90237 18.7071 3.29289Z" fill="#262626"/>
</svg>
