<svg width="16" height="16" viewBox="0 0 16 16" fill="none" xmlns="http://www.w3.org/2000/svg">
<path fill-rule="evenodd" clip-rule="evenodd" d="M8 5.5C8.27614 5.5 8.5 5.72386 8.5 6V12C8.5 12.2761 8.27614 12.5 8 12.5C7.72386 12.5 7.5 12.2761 7.5 12V6C7.5 5.72386 7.72386 5.5 8 5.5Z" fill="#262626"/>
<path fill-rule="evenodd" clip-rule="evenodd" d="M4.94211 5.50337C5.21639 5.47137 5.46468 5.66778 5.49668 5.94206L6.19668 11.9421C6.22868 12.2163 6.03227 12.4646 5.75799 12.4966C5.48371 12.5286 5.23542 12.3322 5.20342 12.0579L4.50342 6.05794C4.47142 5.78366 4.66783 5.53537 4.94211 5.50337Z" fill="#262626"/>
<path fill-rule="evenodd" clip-rule="evenodd" d="M11.058 5.50337C11.3323 5.53537 11.5287 5.78366 11.4967 6.05794L10.7967 12.0579C10.7647 12.3322 10.5164 12.5286 10.2422 12.4966C9.96788 12.4646 9.77147 12.2163 9.80346 11.9421L10.5034 5.94207C10.5354 5.66778 10.7837 5.47137 11.058 5.50337Z" fill="#262626"/>
<path fill-rule="evenodd" clip-rule="evenodd" d="M2 3L3.20396 13.2337C3.32246 14.2409 4.17609 15 5.19026 15H10.8097C11.8239 15 12.6775 14.2409 12.796 13.2337L14 3H2ZM3.12454 4L4.19711 13.1168C4.25636 13.6205 4.68318 14 5.19026 14H10.8097C11.3168 14 11.7436 13.6205 11.8029 13.1168L12.8755 4H3.12454Z" fill="#262626"/>
<path fill-rule="evenodd" clip-rule="evenodd" d="M0.5 3.5C0.5 3.22386 0.723858 3 1 3H15C15.2761 3 15.5 3.22386 15.5 3.5C15.5 3.77614 15.2761 4 15 4H1C0.723858 4 0.5 3.77614 0.5 3.5Z" fill="#262626"/>
<path fill-rule="evenodd" clip-rule="evenodd" d="M7 1.5C6.72386 1.5 6.5 1.72386 6.5 2V3C6.5 3.27614 6.27614 3.5 6 3.5C5.72386 3.5 5.5 3.27614 5.5 3V2C5.5 1.17157 6.17157 0.5 7 0.5H9C9.82843 0.5 10.5 1.17157 10.5 2V3C10.5 3.27614 10.2761 3.5 10 3.5C9.72386 3.5 9.5 3.27614 9.5 3V2C9.5 1.72386 9.27614 1.5 9 1.5H7Z" fill="#262626"/>
</svg>
