<svg width="16" height="16" viewBox="0 0 16 16" fill="none" xmlns="http://www.w3.org/2000/svg">
<path fill-rule="evenodd" clip-rule="evenodd" d="M5 14H11C11.5523 14 12 13.5523 12 13V6.82843C12 6.56321 11.8946 6.30886 11.7071 6.12132L8.87868 3.29289C8.69114 3.10536 8.43679 3 8.17157 3H5C4.44772 3 4 3.44772 4 4V13C4 13.5523 4.44772 14 5 14ZM5 2C3.89543 2 3 2.89543 3 4V13C3 14.1046 3.89543 15 5 15H11C12.1046 15 13 14.1046 13 13V6.82843C13 6.29799 12.7893 5.78929 12.4142 5.41421L9.58579 2.58579C9.21071 2.21071 8.70201 2 8.17157 2H5Z" fill="#262626"/>
<path fill-rule="evenodd" clip-rule="evenodd" d="M7.5 6V3H8.5V6C8.5 6.27614 8.72386 6.5 9 6.5H12V7.5H9C8.17157 7.5 7.5 6.82843 7.5 6Z" fill="#262626"/>
</svg>
