<svg width="22" height="22" viewBox="0 0 22 22" fill="none" xmlns="http://www.w3.org/2000/svg">
<path fill-rule="evenodd" clip-rule="evenodd" d="M18.1219 11C17.5435 10.2864 16.6182 9.25601 15.4712 8.35579C14.0856 7.26832 12.5415 6.5 11.0001 6.5C9.45875 6.5 7.91464 7.26832 6.52901 8.35579C5.38198 9.25601 4.45672 10.2864 3.87835 11C4.45672 11.7136 5.38198 12.744 6.52901 13.6442C7.91464 14.7317 9.45875 15.5 11.0001 15.5C12.5415 15.5 14.0856 14.7317 15.4712 13.6442C16.6182 12.744 17.5435 11.7136 18.1219 11ZM19.6048 11.5416C19.8517 11.2191 19.8517 10.7809 19.6048 10.4584C18.4747 8.98267 15.0497 5 11.0001 5C6.95046 5 3.52551 8.98267 2.39541 10.4584C2.14847 10.7809 2.14847 11.2191 2.39541 11.5416C3.52551 13.0173 6.95046 17 11.0001 17C15.0497 17 18.4747 13.0173 19.6048 11.5416Z" fill="#262626"/>
<path fill-rule="evenodd" clip-rule="evenodd" d="M11 12.5C11.8284 12.5 12.5 11.8284 12.5 11C12.5 10.1716 11.8284 9.5 11 9.5C10.1716 9.5 9.5 10.1716 9.5 11C9.5 11.8284 10.1716 12.5 11 12.5ZM11 14C12.6569 14 14 12.6569 14 11C14 9.34315 12.6569 8 11 8C9.34315 8 8 9.34315 8 11C8 12.6569 9.34315 14 11 14Z" fill="#262626"/>
</svg>
