<svg width="24" height="22" viewBox="0 0 24 22" fill="none" xmlns="http://www.w3.org/2000/svg">
<path fill-rule="evenodd" clip-rule="evenodd" d="M2.58194 10.3774C2.92581 10.1464 3.39177 10.238 3.6227 10.5819L3.00008 11C3.6227 10.5819 3.62279 10.582 3.6227 10.5819L3.62375 10.5834L3.63056 10.5934C3.63701 10.6028 3.64726 10.6177 3.6612 10.6376C3.6891 10.6775 3.73178 10.7377 3.78848 10.8153C3.90193 10.9706 4.0712 11.195 4.29024 11.4656C4.72926 12.0078 5.36341 12.7292 6.1442 13.4483C7.73258 14.9112 9.80371 16.25 12.0001 16.25C14.1964 16.25 16.2676 14.9112 17.8559 13.4483C18.6367 12.7292 19.2709 12.0078 19.7099 11.4656C19.929 11.195 20.0982 10.9706 20.2117 10.8153C20.2684 10.7377 20.3111 10.6775 20.339 10.6376C20.3529 10.6177 20.3631 10.6028 20.3696 10.5934L20.3764 10.5834L20.3775 10.5819C20.6084 10.2382 21.0744 10.1465 21.4182 10.3774C21.7621 10.6083 21.8536 11.0743 21.6227 11.4181L21.0001 11C21.6227 11.4181 21.6228 11.4179 21.6227 11.4181L21.622 11.4191L21.621 11.4206L21.6179 11.4253L21.6071 11.441C21.598 11.4543 21.5851 11.4731 21.5683 11.4971C21.5347 11.5451 21.486 11.6138 21.4228 11.7003C21.2965 11.8732 21.1121 12.1175 20.8757 12.4094C20.4039 12.9922 19.72 13.7708 18.8721 14.5517C17.2031 16.0888 14.7743 17.75 12.0001 17.75C9.22588 17.75 6.79701 16.0888 5.12803 14.5517C4.28014 13.7708 3.59628 12.9922 3.12444 12.4094C2.88806 12.1175 2.7037 11.8732 2.57738 11.7003C2.51419 11.6138 2.46544 11.5451 2.43188 11.4971C2.41511 11.4731 2.40212 11.4543 2.39302 11.441L2.38229 11.4253L2.37913 11.4206L2.37811 11.4191C2.37796 11.4189 2.37745 11.4181 3.00008 11L2.37745 11.4181C2.14652 11.0743 2.23807 10.6083 2.58194 10.3774Z" fill="#262626"/>
<path fill-rule="evenodd" clip-rule="evenodd" d="M12 16.25C12.4142 16.25 12.75 16.5858 12.75 17V20C12.75 20.4142 12.4142 20.75 12 20.75C11.5858 20.75 11.25 20.4142 11.25 20V17C11.25 16.5858 11.5858 16.25 12 16.25Z" fill="#262626"/>
<path fill-rule="evenodd" clip-rule="evenodd" d="M19.4092 12.909C19.7021 12.6161 20.177 12.6161 20.4699 12.909L22.5912 15.0303C22.8841 15.3232 22.8841 15.7981 22.5912 16.091C22.2983 16.3839 21.8234 16.3839 21.5306 16.091L19.4092 13.9697C19.1163 13.6768 19.1163 13.2019 19.4092 12.909Z" fill="#262626"/>
<path fill-rule="evenodd" clip-rule="evenodd" d="M4.59088 12.909C4.88377 13.2019 4.88377 13.6768 4.59088 13.9697L2.46956 16.091C2.17666 16.3839 1.70179 16.3839 1.4089 16.091C1.116 15.7981 1.116 15.3232 1.4089 15.0303L3.53022 12.909C3.82311 12.6161 4.29798 12.6161 4.59088 12.909Z" fill="#262626"/>
<path fill-rule="evenodd" clip-rule="evenodd" d="M15.8751 15.5514C16.2338 15.3443 16.6925 15.4672 16.8996 15.826L18.3996 18.424C18.6067 18.7828 18.4838 19.2414 18.1251 19.4486C17.7664 19.6557 17.3077 19.5328 17.1006 19.174L15.6006 16.576C15.3935 16.2172 15.5164 15.7585 15.8751 15.5514Z" fill="#262626"/>
<path fill-rule="evenodd" clip-rule="evenodd" d="M8.1251 15.5514C8.48382 15.7585 8.60673 16.2172 8.39962 16.576L6.89962 19.174C6.69252 19.5328 6.23382 19.6557 5.8751 19.4486C5.51639 19.2414 5.39348 18.7828 5.60059 18.424L7.10059 15.826C7.30769 15.4672 7.76639 15.3443 8.1251 15.5514Z" fill="#262626"/>
</svg>
