<svg width="18" height="18" viewBox="0 0 18 18" fill="none" xmlns="http://www.w3.org/2000/svg">
<path d="M9.00438 17.5C13.6511 17.5 17.5 13.6511 17.5 8.99562C17.5 4.34889 13.6423 0.5 8.99562 0.5C4.34889 0.5 0.5 4.34889 0.5 8.99562C0.5 13.6511 4.35766 17.5 9.00438 17.5ZM9.00438 15.9832C5.12919 15.9832 2.02553 12.8796 2.02553 8.99562C2.02553 5.12042 5.12042 2.00799 8.99562 2.00799C12.8708 2.00799 15.9832 5.12042 15.992 8.99562C16.0008 12.8796 12.8796 15.9832 9.00438 15.9832ZM4.55054 7.42625H13.467C13.8528 7.42625 14.1158 7.18953 14.1158 6.8213C14.1158 6.45307 13.8528 6.20758 13.467 6.20758H4.55054C4.16478 6.20758 3.89299 6.45307 3.89299 6.8213C3.89299 7.18953 4.16478 7.42625 4.55054 7.42625ZM5.75168 10.1617H12.2659C12.6516 10.1617 12.9234 9.92496 12.9234 9.55673C12.9234 9.1885 12.6516 8.95178 12.2659 8.95178H5.75168C5.36591 8.95178 5.09412 9.1885 5.09412 9.55673C5.09412 9.92496 5.36591 10.1617 5.75168 10.1617ZM6.99665 12.9059H11.0209C11.3979 12.9059 11.6697 12.6604 11.6697 12.3009C11.6697 11.9327 11.3979 11.6872 11.0209 11.6872H6.99665C6.61965 11.6872 6.34786 11.9327 6.34786 12.3009C6.34786 12.6604 6.61965 12.9059 6.99665 12.9059Z" fill="#262626"/>
</svg>
