<svg width="22" height="22" viewBox="0 0 22 22" fill="none" xmlns="http://www.w3.org/2000/svg">
<path fill-rule="evenodd" clip-rule="evenodd" d="M16 5.5H6C5.17157 5.5 4.5 6.17157 4.5 7V18C4.5 18.8284 5.17157 19.5 6 19.5H16C16.8284 19.5 17.5 18.8284 17.5 18V7C17.5 6.17157 16.8284 5.5 16 5.5ZM6 4C4.34315 4 3 5.34315 3 7V18C3 19.6569 4.34315 21 6 21H16C17.6569 21 19 19.6569 19 18V7C19 5.34315 17.6569 4 16 4H6Z" fill="#262626"/>
<path d="M6 8.75C6 8.33579 6.33579 8 6.75 8H15.25C15.6642 8 16 8.33579 16 8.75C16 9.16421 15.6642 9.5 15.25 9.5H6.75C6.33579 9.5 6 9.16421 6 8.75Z" fill="#262626"/>
<path d="M6 12.5C6 12.0858 6.33579 11.75 6.75 11.75H15.25C15.6642 11.75 16 12.0858 16 12.5C16 12.9142 15.6642 13.25 15.25 13.25H6.75C6.33579 13.25 6 12.9142 6 12.5Z" fill="#262626"/>
<path d="M6 16.25C6 15.8358 6.33579 15.5 6.75 15.5H12.25C12.6642 15.5 13 15.8358 13 16.25C13 16.6642 12.6642 17 12.25 17H6.75C6.33579 17 6 16.6642 6 16.25Z" fill="#262626"/>
<path fill-rule="evenodd" clip-rule="evenodd" d="M11 2.75C10.3096 2.75 9.75 3.30964 9.75 4H8.25C8.25 2.48122 9.48122 1.25 11 1.25C12.5188 1.25 13.75 2.48122 13.75 4H12.25C12.25 3.30964 11.6904 2.75 11 2.75Z" fill="#262626"/>
</svg>
