<svg width="22" height="22" viewBox="0 0 22 22" fill="none" xmlns="http://www.w3.org/2000/svg">
<path fill-rule="evenodd" clip-rule="evenodd" d="M6.25 7C6.25 4.92893 7.92893 3.25 10 3.25H17C19.0711 3.25 20.75 4.92893 20.75 7V16C20.75 18.0711 19.0711 19.75 17 19.75H10C7.92893 19.75 6.25 18.0711 6.25 16V14H7.75V16C7.75 17.2426 8.75736 18.25 10 18.25H17C18.2426 18.25 19.25 17.2426 19.25 16V7C19.25 5.75736 18.2426 4.75 17 4.75H10C8.75736 4.75 7.75 5.75736 7.75 7V9H6.25V7Z" fill="#262626"/>
<path fill-rule="evenodd" clip-rule="evenodd" d="M10.5017 16.5606C10.1921 16.2854 10.1642 15.8113 10.4394 15.5017L13.9965 11.5L10.4394 7.49827C10.1642 7.18869 10.1921 6.71463 10.5017 6.43944C10.8113 6.16425 11.2853 6.19214 11.5605 6.50173L16.0034 11.5L11.5605 16.4983C11.2853 16.8079 10.8113 16.8357 10.5017 16.5606Z" fill="#262626"/>
<path d="M15 11.5C15 11.9142 14.6642 12.25 14.25 12.25L1.75 12.25C1.33579 12.25 1 11.9142 1 11.5C1 11.0858 1.33579 10.75 1.75 10.75L14.25 10.75C14.6642 10.75 15 11.0858 15 11.5Z" fill="#262626"/>
</svg>
