<svg width="22" height="22" viewBox="0 0 22 22" fill="none" xmlns="http://www.w3.org/2000/svg">
<path fill-rule="evenodd" clip-rule="evenodd" d="M9.25 6.75C9.25 4.67893 10.9289 3 13 3H18C20.0711 3 21.75 4.67893 21.75 6.75V15.75C21.75 17.8211 20.0711 19.5 18 19.5H13C10.9289 19.5 9.25 17.8211 9.25 15.75V13.75H10.75V15.75C10.75 16.9926 11.7574 18 13 18H18C19.2426 18 20.25 16.9926 20.25 15.75V6.75C20.25 5.50736 19.2426 4.5 18 4.5H13C11.7574 4.5 10.75 5.50736 10.75 6.75V8.75H9.25V6.75Z" fill="#262626"/>
<path fill-rule="evenodd" clip-rule="evenodd" d="M6.49832 6.18944C6.80791 6.46462 6.83579 6.93868 6.56061 7.24827L3.00351 11.25L6.56061 15.2517C6.83579 15.5613 6.80791 16.0354 6.49832 16.3105C6.18873 16.5857 5.71468 16.5579 5.43949 16.2483L0.996582 11.25L5.43949 6.25172C5.71468 5.94213 6.18873 5.91425 6.49832 6.18944Z" fill="#262626"/>
<path d="M2 11.25C2 10.8358 2.33579 10.5 2.75 10.5H14.25C14.6642 10.5 15 10.8358 15 11.25C15 11.6642 14.6642 12 14.25 12H2.75C2.33579 12 2 11.6642 2 11.25Z" fill="#262626"/>
</svg>
