<svg width="16" height="16" viewBox="0 0 16 16" fill="none" xmlns="http://www.w3.org/2000/svg">
<path d="M13.0603 9.63803C12.1668 10.1539 11.1049 10.2937 10.1083 10.0267C9.1117 9.75963 8.26199 9.10763 7.74611 8.2141C7.23023 7.32057 7.09043 6.2587 7.35747 5.26209C7.62451 4.26549 8.27651 3.41578 9.17005 2.8999C9.32968 2.80823 9.30164 2.55228 9.11835 2.5352C8.33469 2.46214 7.54172 2.56815 6.80045 2.84877C5.86007 3.20476 5.04344 3.82639 4.44991 4.63803C3.85639 5.44967 3.51156 6.41632 3.45738 7.42036C3.40321 8.4244 3.64203 9.42254 4.14478 10.2933C4.64753 11.1641 5.39254 11.87 6.28915 12.3251C7.18576 12.7802 8.19531 12.9649 9.19498 12.8567C10.1946 12.7485 11.1413 12.3521 11.9198 11.7157C12.5334 11.2141 13.0217 10.5804 13.3503 9.86516C13.4272 9.69788 13.2195 9.54562 13.0603 9.63803Z" fill="#262626"/>
</svg>
