<svg width="16" height="16" viewBox="0 0 16 16" fill="none" xmlns="http://www.w3.org/2000/svg">
<path fill-rule="evenodd" clip-rule="evenodd" d="M10.8032 10.3535C10.9984 10.1583 11.315 10.1583 11.5103 10.3535L15.0458 13.8891C15.2411 14.0843 15.2411 14.4009 15.0458 14.5962C14.8506 14.7914 14.534 14.7914 14.3387 14.5962L10.8032 11.0606C10.6079 10.8654 10.6079 10.5488 10.8032 10.3535Z" fill="#262626"/>
<path fill-rule="evenodd" clip-rule="evenodd" d="M7 12C9.76142 12 12 9.76142 12 7C12 4.23858 9.76142 2 7 2C4.23858 2 2 4.23858 2 7C2 9.76142 4.23858 12 7 12ZM7 13C10.3137 13 13 10.3137 13 7C13 3.68629 10.3137 1 7 1C3.68629 1 1 3.68629 1 7C1 10.3137 3.68629 13 7 13Z" fill="#262626"/>
</svg>
