<svg width="16" height="16" viewBox="0 0 16 16" fill="none" xmlns="http://www.w3.org/2000/svg">
<path d="M8.35 1.35C8.35 1.1567 8.1933 1 8 1C7.8067 1 7.65 1.1567 7.65 1.35V3.45C7.65 3.6433 7.8067 3.8 8 3.8C8.1933 3.8 8.35 3.6433 8.35 3.45V1.35ZM5.0285 5.0285C5.16567 4.89133 5.16547 4.66887 5.02806 4.53194L3.54143 3.05057C3.40581 2.91543 3.18638 2.91562 3.051 3.051C2.91562 3.18638 2.91543 3.40581 3.05057 3.54143L4.53194 5.02806C4.66887 5.16547 4.89133 5.16567 5.0285 5.0285ZM3.8 8C3.8 7.8067 3.6433 7.65 3.45 7.65H1.35C1.1567 7.65 1 7.8067 1 8C1 8.1933 1.1567 8.35 1.35 8.35H3.45C3.6433 8.35 3.8 8.1933 3.8 8ZM3.05057 12.4586C2.91543 12.5942 2.91562 12.8136 3.051 12.949C3.18638 13.0844 3.40581 13.0846 3.54143 12.9494L5.02806 11.4681C5.16547 11.3311 5.16567 11.1087 5.0285 10.9715C4.89133 10.8343 4.66887 10.8345 4.53194 10.9719L3.05057 12.4586ZM7.65 14.65C7.65 14.8433 7.8067 15 8 15C8.1933 15 8.35 14.8433 8.35 14.65V12.55C8.35 12.3567 8.1933 12.2 8 12.2C7.8067 12.2 7.65 12.3567 7.65 12.55V14.65ZM10.9715 10.9715C10.8343 11.1087 10.8345 11.3311 10.9719 11.4681L12.4586 12.9494C12.5942 13.0846 12.8136 13.0844 12.949 12.949C13.0844 12.8136 13.0846 12.5942 12.9494 12.4586L11.4681 10.9719C11.3311 10.8345 11.1087 10.8343 10.9715 10.9715ZM12.55 7.65C12.3567 7.65 12.2 7.8067 12.2 8C12.2 8.1933 12.3567 8.35 12.55 8.35H14.65C14.8433 8.35 15 8.1933 15 8C15 7.8067 14.8433 7.65 14.65 7.65H12.55ZM12.9494 3.54143C13.0846 3.40581 13.0844 3.18638 12.949 3.051C12.8136 2.91562 12.5942 2.91543 12.4586 3.05057L10.9719 4.53194C10.8345 4.66887 10.8343 4.89133 10.9715 5.0285C11.1087 5.16567 11.3311 5.16547 11.4681 5.02806L12.9494 3.54143ZM8 5.2C7.44621 5.2 6.90486 5.36422 6.4444 5.67189C5.98395 5.97955 5.62506 6.41685 5.41314 6.92849C5.20121 7.44012 5.14576 8.00311 5.2538 8.54625C5.36184 9.0894 5.62851 9.58831 6.0201 9.9799C6.41169 10.3715 6.9106 10.6382 7.45375 10.7462C7.99689 10.8542 8.55988 10.7988 9.07151 10.5869C9.58315 10.3749 10.0204 10.0161 10.3281 9.5556C10.6358 9.09514 10.8 8.55379 10.8 8C10.8 7.25739 10.505 6.5452 9.9799 6.0201C9.4548 5.495 8.74261 5.2 8 5.2Z" fill="#262626"/>
</svg>
