<svg width="16" height="16" viewBox="0 0 16 16" fill="none" xmlns="http://www.w3.org/2000/svg">
<path fill-rule="evenodd" clip-rule="evenodd" d="M0.768953 5.24098C1.1606 5.10613 1.58741 5.3143 1.72227 5.70595L3.10593 9.7244L7.12439 8.34074C7.51603 8.20588 7.94285 8.41405 8.0777 8.8057C8.21256 9.19735 8.00439 9.62416 7.61274 9.75901L2.17601 11.631L0.303991 6.1943C0.169136 5.80265 0.377307 5.37584 0.768953 5.24098Z" fill="#262626"/>
<path fill-rule="evenodd" clip-rule="evenodd" d="M8.99995 4C11.6809 4 14.1331 6.07346 15.6893 9.70457C15.8525 10.0853 15.6761 10.5262 15.2954 10.6894C14.9147 10.8525 14.4738 10.6762 14.3106 10.2954C12.8668 6.92654 10.819 5.5 8.99995 5.5C7.18094 5.5 5.13312 6.92654 3.68931 10.2954C3.52614 10.6762 3.08523 10.8525 2.70451 10.6894C2.32379 10.5262 2.14742 10.0853 2.31059 9.70456C3.86677 6.07346 6.31895 4 8.99995 4Z" fill="#262626"/>
</svg>
