<svg width="22" height="22" viewBox="0 0 22 22" fill="none" xmlns="http://www.w3.org/2000/svg">
<path fill-rule="evenodd" clip-rule="evenodd" d="M15.75 5.25C17.8211 5.25 19.5 6.92893 19.5 9L19.5 16C19.5 18.0711 17.8211 19.75 15.75 19.75L6.75 19.75C4.67893 19.75 3 18.0711 3 16L3 9C3 6.92893 4.67893 5.25 6.75 5.25L8.75 5.25L8.75 6.75L6.75 6.75C5.50736 6.75 4.5 7.75736 4.5 9L4.5 16C4.5 17.2426 5.50736 18.25 6.75 18.25L15.75 18.25C16.9926 18.25 18 17.2426 18 16L18 9C18 7.75736 16.9926 6.75 15.75 6.75L13.75 6.75L13.75 5.25L15.75 5.25Z" fill="#262626"/>
<path fill-rule="evenodd" clip-rule="evenodd" d="M6.18945 9.50172C6.46464 9.19214 6.93869 9.16425 7.24828 9.43944L11.25 12.9965L15.2517 9.43944C15.5613 9.16425 16.0354 9.19214 16.3106 9.50172C16.5858 9.81131 16.5579 10.2854 16.2483 10.5606L11.25 15.0035L6.25173 10.5606C5.94215 10.2854 5.91426 9.81131 6.18945 9.50172Z" fill="#262626"/>
<path d="M11.25 14C10.8358 14 10.5 13.6642 10.5 13.25L10.5 1.75C10.5 1.33579 10.8358 1 11.25 1C11.6642 1 12 1.33579 12 1.75L12 13.25C12 13.6642 11.6642 14 11.25 14Z" fill="#262626"/>
</svg>
