<svg width="22" height="22" viewBox="0 0 22 22" fill="none" xmlns="http://www.w3.org/2000/svg">
<path fill-rule="evenodd" clip-rule="evenodd" d="M16 8.25C18.0711 8.25 19.75 9.92893 19.75 12L19.75 18C19.75 20.0711 18.0711 21.75 16 21.75L7 21.75C4.92893 21.75 3.25 20.0711 3.25 18L3.25 12C3.25 9.92893 4.92893 8.25 7 8.25L9 8.25L9 9.75L7 9.75C5.75736 9.75 4.75 10.7574 4.75 12L4.75 18C4.75 19.2426 5.75736 20.25 7 20.25L16 20.25C17.2426 20.25 18.25 19.2426 18.25 18L18.25 12C18.25 10.7574 17.2426 9.75 16 9.75L14 9.75L14 8.25L16 8.25Z" fill="#262626"/>
<path fill-rule="evenodd" clip-rule="evenodd" d="M16.5605 6.49828C16.2854 6.80786 15.8113 6.83575 15.5017 6.56056L11.5 3.00347L7.49827 6.56056C7.18868 6.83575 6.71462 6.80786 6.43944 6.49828C6.16425 6.18869 6.19213 5.71464 6.50172 5.43945L11.5 0.996537L16.4983 5.43945C16.8079 5.71463 16.8357 6.18869 16.5605 6.49828Z" fill="#262626"/>
<path d="M11.5 2C11.9142 2 12.25 2.33579 12.25 2.75L12.25 14.25C12.25 14.6642 11.9142 15 11.5 15C11.0858 15 10.75 14.6642 10.75 14.25L10.75 2.75C10.75 2.33579 11.0858 2 11.5 2Z" fill="#262626"/>
</svg>
