<svg width="22" height="22" viewBox="0 0 22 22" fill="none" xmlns="http://www.w3.org/2000/svg">
<path fill-rule="evenodd" clip-rule="evenodd" d="M4.91868 18.5H17.0813C17.3126 18.5 17.5 18.3126 17.5 18.0813C17.5 15.9349 15.9017 14.1244 13.7719 13.8582L13.1364 13.7787C11.7177 13.6014 10.2823 13.6014 8.8636 13.7787L8.22814 13.8582C6.0983 14.1244 4.5 15.9349 4.5 18.0813C4.5 18.3126 4.68745 18.5 4.91868 18.5ZM8.04208 12.3697C5.1616 12.7298 3 15.1784 3 18.0813C3 19.141 3.85902 20 4.91868 20H17.0813C18.141 20 19 19.141 19 18.0813C19 15.1784 16.8384 12.7298 13.9579 12.3697L13.3225 12.2903C11.7802 12.0975 10.2198 12.0975 8.67754 12.2903L8.04208 12.3697Z" fill="#262626"/>
<path fill-rule="evenodd" clip-rule="evenodd" d="M12.2312 8.59339C12.6943 7.90658 13 6.94963 13 6C13 4.91864 12.7759 4.32343 12.5253 4.01636C12.3232 3.76864 11.9342 3.5 11 3.5C10.0658 3.5 9.67681 3.76864 9.47468 4.01636C9.22411 4.32343 9 4.91864 9 6C9 6.94963 9.30572 7.90658 9.76882 8.59339C10.2492 9.3059 10.7217 9.5 11 9.5C11.2783 9.5 11.7508 9.3059 12.2312 8.59339ZM11 11C12.933 11 14.5 8.48528 14.5 6C14.5 3.51472 13.5 2 11 2C8.5 2 7.5 3.51472 7.5 6C7.5 8.48528 9.067 11 11 11Z" fill="#262626"/>
</svg>
